<svg width="1488" height="778" viewBox="0 0 1488 778" fill="none" xmlns="http://www.w3.org/2000/svg">
<path d="M429.988 0H1488L1069.32 771H0L429.988 0Z" fill="#3D6375"/>
<path d="M1068.66 775H765.156L858.656 678C883.323 652.333 902.656 630.667 916.656 613C930.656 595 940.99 579.833 947.656 567.5C954.656 555.167 958.99 545.167 960.656 537.5C962.323 529.833 963.156 523.333 963.156 518C963.156 512.333 962.156 506.833 960.156 501.5C958.49 496.167 955.823 491.5 952.156 487.5C948.49 483.167 943.99 479.833 938.656 477.5C933.656 474.833 927.656 473.5 920.656 473.5C907.323 473.5 896.823 477.833 889.156 486.5C881.823 495.167 878.156 506 878.156 519C878.156 522.667 878.656 528 879.656 535H772.656C772.656 513 776.156 493 783.156 475C790.49 457 800.656 441.5 813.656 428.5C826.656 415.5 841.99 405.5 859.656 398.5C877.656 391.5 897.323 388 918.656 388C939.656 388 958.99 391.333 976.656 398C994.656 404.667 1010.16 414 1023.16 426C1036.16 438 1046.32 452.333 1053.66 469C1060.99 485.333 1064.66 503.167 1064.66 522.5C1064.66 543.167 1060.16 562.333 1051.16 580C1042.49 597.333 1028.49 615.167 1009.16 633.5L946.656 692H1068.66V775Z" fill="#FFF7E2"/>
</svg>
