<svg width="2379" height="1329" viewBox="0 0 2379 1329" fill="none" xmlns="http://www.w3.org/2000/svg">
<path d="M633.04 55.4616C649.943 21.4827 684.623 0 722.574 0H2216.83C2291.08 0 2339.44 78.0603 2306.37 144.538L1745.23 1272.58C1728.32 1306.56 1693.64 1328.04 1655.69 1328.04H161.434C87.1853 1328.04 38.8309 1249.98 71.9001 1183.5L633.04 55.4616Z" fill="url(#paint0_linear_120_2)"/>
<path d="M1030.82 521.462C1047.72 487.483 1082.4 466 1120.35 466H1987.01C2061.26 466 2109.62 544.06 2076.55 610.538L1746.63 1273.76C1729.73 1307.74 1695.05 1329.23 1657.09 1329.23H790.434C716.185 1329.23 667.831 1251.17 700.9 1184.69L1030.82 521.462Z" fill="url(#paint1_linear_120_2)"/>
<path d="M1361.66 852.462C1378.56 818.483 1413.24 797 1451.19 797H1822.38C1896.63 797 1944.98 875.06 1911.92 941.538L1747.16 1272.75C1730.25 1306.73 1695.57 1328.22 1657.62 1328.22H1286.43C1212.18 1328.22 1163.83 1250.16 1196.9 1183.68L1361.66 852.462Z" fill="url(#paint2_linear_120_2)"/>
<defs>
<linearGradient id="paint0_linear_120_2" x1="2243" y1="62" x2="267" y2="1215" gradientUnits="userSpaceOnUse">
<stop offset="0.375" stop-color="#8EEAFE"/>
<stop offset="1" stop-color="#B8C3FF"/>
</linearGradient>
<linearGradient id="paint1_linear_120_2" x1="2064.5" y1="508" x2="737" y2="1261.5" gradientUnits="userSpaceOnUse">
<stop offset="0.510417" stop-color="#FFF2B0"/>
<stop offset="1" stop-color="#FFBDD5"/>
</linearGradient>
<linearGradient id="paint2_linear_120_2" x1="1913" y1="850" x2="1237.5" y2="1269" gradientUnits="userSpaceOnUse">
<stop offset="0.5625" stop-color="white"/>
<stop offset="1" stop-color="#E8E8E8"/>
</linearGradient>
</defs>
</svg>
