<svg width="1452" height="776" viewBox="0 0 1452 776" fill="none" xmlns="http://www.w3.org/2000/svg">
<path d="M419.585 0H1452L1043.45 773H0L419.585 0Z" fill="#3D6375"/>
<path d="M1043.14 773H739.636L833.136 676C857.803 650.333 877.136 628.667 891.136 611C905.136 593 915.469 577.833 922.136 565.5C929.136 553.167 933.469 543.167 935.136 535.5C936.803 527.833 937.636 521.333 937.636 516C937.636 510.333 936.636 504.833 934.636 499.5C932.969 494.167 930.303 489.5 926.636 485.5C922.969 481.167 918.469 477.833 913.136 475.5C908.136 472.833 902.136 471.5 895.136 471.5C881.803 471.5 871.303 475.833 863.636 484.5C856.303 493.167 852.636 504 852.636 517C852.636 520.667 853.136 526 854.136 533H747.136C747.136 511 750.636 491 757.636 473C764.969 455 775.136 439.5 788.136 426.5C801.136 413.5 816.469 403.5 834.136 396.5C852.136 389.5 871.803 386 893.136 386C914.136 386 933.469 389.333 951.136 396C969.136 402.667 984.636 412 997.636 424C1010.64 436 1020.8 450.333 1028.14 467C1035.47 483.333 1039.14 501.167 1039.14 520.5C1039.14 541.167 1034.64 560.333 1025.64 578C1016.97 595.333 1002.97 613.167 983.636 631.5L921.136 690H1043.14V773Z" fill="#FFF7E2"/>
</svg>
